<?xml version="1.0" encoding="utf-8"?>
<!-- Generator: Adobe Illustrator 22.1.0, SVG Export Plug-In . SVG Version: 6.00 Build 0)  -->
<svg version="1.1" id="Layer_1" xmlns="http://www.w3.org/2000/svg" xmlns:xlink="http://www.w3.org/1999/xlink" x="0px" y="0px"
	 viewBox="0 0 88.1 145.1" style="enable-background:new 0 0 88.1 145.1;" xml:space="preserve">
<style type="text/css">
	.st0{fill:#F43880;}
	.st1{fill:none;stroke:#000000;stroke-width:2;stroke-miterlimit:10;}
</style>
<g>
	<path class="st0" d="M67.2,5.5c-0.9,0.1-1.8,0.4-2.7,0.7c-0.7-1.4-1.6-2.7-2.9-3.8c-3.8-3.1-8.7-2.5-13-1.1c-0.5,0.2-1,0.4-1.4,0.7
		C44,0.6,40,1,37,2.8c-2.5,1.5-4.1,3.7-5.3,6.1c0,0-0.1,0-0.1,0c-2-1.9-5.8-1.5-7.4,0.6c-0.1,0-0.1,0.1-0.2,0.1
		c-1.2,0.9-2.2,2.1-2.9,3.4c-0.1,0.2-0.2,0.4-0.3,0.5c-0.6,0.1-1.3,0.1-1.9,0.2c-5.6,1-9.8,4.7-12.2,9.6c-1.2,0.3-2.3,1-3.2,2.2
		c-3.8,5.1-4,11.4-1.7,16.7c-0.4,2.4-0.4,4.9-0.1,6.6c1.2,7.1,6,12.3,11.7,16.2c0.2,0.3,0.4,0.7,0.6,1c4.6,5.8,11.6,7.6,18.2,10
		c0.3,0.3,0.5,0.6,0.8,0.8c0.9,0.9,2.1,1.3,3.3,1.3c0,0,0.1,0,0.1,0.1c0.2,0.6,0.5,1.2,1,1.9c1.2,1.5,2.6,2.5,4.4,3
		c1.6,1.2,3.9,1.5,5.7,0.4c1.4,0.1,2.8-0.2,4.2-0.9c1.3-0.7,2.3-2.2,2.5-3.7c4-1.3,7.9-5,9.6-8.6c5.3-0.1,10.6-5.6,13.4-9.4
		c4.3-5.9,7.8-13.4,9-20.6C88,28.7,83.8,2.8,67.2,5.5z"/>
	<g>
		<path class="st1" d="M44.3,85.5c-2.5-2.7-8.2-2.8-8.1-8c0-0.2-1.5-0.1-1.9-0.5c-2.9-3-7.4-1.4-10.5-3.5
			C15.3,67.8,7.2,61.8,3.2,51.6C-0.4,42.3,0.7,33.7,4.3,25c1-2.4,2.9-3.5,5.5-3l0.9-0.1 M24.3,144.5c8.5-11.1,14-23.5,17.5-37
			c1.8-6.9,4-14.7,2.5-22 M54.3,75.5c4.7-2.1,15.6-7.6,19.1-11.4c6.5-7.2,12.2-14.6,13.5-24.6c0.8-6.4-0.4-7.6-6.5-8.7
			c-4.2-0.7-8.5,1.3-12-0.8c-4,3-6.3,6.7-6.6,11.4c-0.4,6.1-1.8,12-4.1,17.4C55.5,64,57.5,72,51.3,74.5c-0.7,0.3-2.3,0.3-3,0
			c-0.8-0.3-1.7,2.4-7,0 M25.4,32.4l-0.5,0.2l-0.1,0.9c-0.2,3.5-0.3,7-0.5,10.5c-0.3,5.2,0.4,10.1,2,14.6c1.2,3.3,6,7.7,9,12.9
			c0.3,0.5,1.4,2.3,2,3c1.7,1.9,0.2,3.5-2,3 M63.3,6.5C63.7,4.9,63,3.3,61.8,3C57,2,52.2-0.9,47.3,2.9c-1,0.7-2.6-0.6-3.9-0.8
			c-2.7-0.3-5.4-0.2-7.5,2.3c-1.8,2.1-3,4-2,6.5c0.1,0.4,0.3,0.7,0.6,1.1l1,0.3 M33.4,9.9L32.8,9c-4.9-2.6-9.7-1.3-13,3.5
			c-0.9,1.3-2,2.4-3.9,2.7c-3.4,0.5-7.1,8.1-4.8,9.5c1.7,1,3.1,4.7,6.3,2.9l0.9-0.6 M42.8,16c-4-5-6.4-4.7-13.1-1.7
			c-3.6,1.6-5.5,5.4-9.9,5.9c-2.6,0.4-2.7,6-0.5,8.8c0.7,0.9,1.3,2,2,3l0.8,1.4 M75.3,26.5c-2.7-1.1-5.7-1.2-8.1-3.3
			c-1-0.9-3.4-0.9-5.4,0.3c-5.1,2.9-8.3,1.5-10.4-3.9c-1.1-2.8-7.3-4.5-10.9-2.4c-1.9,1.1-3.5,1.7-5.6,1.9c-2.4,0.2-3.4,2.3-3.4,4.4
			c0,2.1-1,4.6,2.4,5.6c2.6,0.8,5,3.1,7-0.6l0.5-1 M71.4,16.9L70.3,16c-3.2-2.1-7.7-1.9-9.7-6.4c-0.5-1.1-4-2-6.2-0.6
			c-1,0.6-1.9,0.9-2.9,0.9c-1.6,0.1-3.2-0.4-4.8-1c-1.8,1-3,2.6-3.8,4.6l-1,1.3 M83.8,23.5c1.7-2.5,0.9-4.9,0-7.5
			c-0.8-2.4-4.2-1.1-4.4-3c-0.4-3.4-3.8-4-6.1-4.5 M2.5,30.1l0.8,1.4c3.4,2.7,7.5,2.5,11.5,2.5c6.8,0.1,12-1.4,16.5-5l0.9-0.7
			 M44.3,85.5c0.5-0.5,1.5-1.4,2-1.4c5.5-0.6,7.3-4.3,8-9.1 M74.8,15.5c-5.4,2.8-11.2,2.3-17,1.9c-3.2-0.2-3.6,2.4-5,4.1L51.3,22
			c-1.8,0.4-3.6,2-5.5,0c-1.8-2-3.7-0.5-4.9,0.6c-1.2,1.2-1.3,3.6,0,4.8c1.2,1.1,2.9,2.8,4.9,2.1c3.4-1.3,6.3,0.1,9.6,0.9
			c3.5,0.9,6.5,1.5,8,5.2 M73.3,8.5c-2.6-2.9-7.6-0.9-10.6-2.4c-1.7-0.8-3.9-0.5-5.9-0.6c-2.5-0.1-4.9,0.1-5,3.5l-0.5,0.5L50.8,10
			 M85.3,32.5c2.5-4.2,2.6-6.5-1.5-8.5c-0.9-0.5-2.9-0.7-2.9-1c0-5.7-6.4-6.7-8.2-11c-0.5-1.1-0.1-1.6,0.5-3.5 M38.3,75.5
			c1.5-0.2,1.3,0.1,3-1c-0.2-3,0.8-7.2,0-10 M75.3,30.5c0.8-5-1.7-9-4.5-12.5l-1-0.8 M53.3,23l-1,1c-1.6,1.3-1.5,3.2-1.5,5"/>
		<path class="st1" d="M51.3,74.5c1,2.8,3.2,0.9,3,1"/>
		<path class="st1" d="M35.7,12"/>
	</g>
</g>
</svg>
